<svg xmlns="http://www.w3.org/2000/svg" viewBox="0 0 24 24">
  <path d="M17.5 14.4l-2-1c-.3-.2-.7-.1-.9.1l-1.2 1.5c-2.3-.6-4.2-2.3-5.4-4.4l1.6-1.3c.2-.2.3-.5.1-.8l-2-3.5c-.2-.3-.5-.4-.8-.4l-5.5.3c-.3 0-.6.2-.7.5-.6 1.5-.9 3.1-.9 4.8 0 5.4 4.4 9.8 9.8 9.8 1.7 0 3.3-.4 4.8-1.1.3-.1.5-.4.5-.7l.2-5.6c0-.3-.2-.6-.4-.8z"/>
  <path d="M21.2 7.7C19.2 4.6 15.9 2.7 12 2.7c-1.7 0-3.3.4-4.8 1.1-.3.1-.5.4-.5.7L6.5 10c0 .3.2.6.4.8l2 1c.3.2.7.1.9-.1l1.2-1.5c2.3.6 4.2 2.3 5.4 4.4l-1.6 1.3c-.2.2-.3.5-.1.8l1.2 2.1c.2.3.5.4.8.4l1.3-.1c1.5 0 3-.4 4.3-1.2 1.3-.8 2.3-1.9 3-3.2.8-1.3 1.2-2.8 1.2-4.3 0-1.1-.2-2.1-.6-3.1z"/>
</svg>
